<svg width="681" height="165" viewBox="0 0 681 165" fill="none" xmlns="http://www.w3.org/2000/svg">
<path d="M62.7354 13.5615L78.4082 10.8135V24.7305L93.6094 24.793V150.604L79.1982 150.545V164.037L0.835938 150.227V24.416L0.842773 24.417H0.84375V24.416L0.84668 24.415L62.7354 0.767578V13.5615ZM79.1982 38.2266V145.762L88.8262 145.802V29.5566L28.6123 29.3105L79.1982 38.2266ZM27.9014 24.5264L73.625 24.7119V16.5078L27.9014 24.5264ZM25.6143 20.0713L57.9521 14.4004V7.71484L25.6143 20.0713Z" fill="white"/>
<path d="M72.2391 102.875L47.0126 105.596L39.6352 135.823L32.2577 101.682L7.03125 85.578L32.2577 82.8573L39.6352 52.6299L47.0126 86.7711L72.2391 102.875Z" fill="#001E6E"/>
<path d="M29.2333 104.737L31.2406 114.027L15.558 118.557L22.3693 100.355L29.2333 104.737Z" fill="#001E6E"/>
<path d="M63.7107 131.33L48.0271 118.479L50.0346 110.254L56.8992 109.514L63.7107 131.33Z" fill="#001E6E"/>
<path d="M56.8992 88.0977L50.0346 83.7157L48.0271 74.4258L63.7107 69.8958L56.8992 88.0977Z" fill="#001E6E"/>
<path d="M31.2406 69.9726L29.2333 78.198L22.3693 78.9381L15.558 57.123L31.2406 69.9726Z" fill="#001E6E"/>
<path fill-rule="evenodd" clip-rule="evenodd" d="M613.41 26.8359C617.421 25.6474 621.698 25.6927 625.683 26.9658C629.667 28.2391 633.177 30.6817 635.756 33.9756C638.334 37.2698 639.862 41.2644 640.142 45.4385C640.246 47.0039 640.045 48.8857 639.657 50.7969C639.037 54.2816 637.733 57.7349 636.18 60.8271L626.408 80.2822H631.363L654.111 35.0703L654.29 34.7139H669.789L661.066 52.0518H674.411V80.2822H680.766L674.411 94.54V104.814H660.154V94.54H603.748L624.36 53.5703C625.006 52.287 626.087 49.949 626.771 47.6895C626.803 47.2413 626.803 46.7858 626.772 46.332C626.673 44.84 626.127 43.4117 625.205 42.2344C624.284 41.0574 623.029 40.1847 621.604 39.7295C620.18 39.2744 618.65 39.2578 617.217 39.6826C615.783 40.1076 614.511 40.9546 613.564 42.1123C612.618 43.2701 612.042 44.6862 611.911 46.1758C611.78 47.665 612.099 49.1597 612.828 50.4648C613.558 51.7701 614.664 52.8261 616.001 53.4951L616.579 53.7842L610.583 65.7676L610.005 65.4785C606.264 63.6068 603.172 60.6527 601.132 57.001C599.091 53.3488 598.195 49.1665 598.562 44.999C598.93 40.8317 600.543 36.8709 603.19 33.6318C605.838 30.393 609.399 28.0248 613.41 26.8359ZM646.862 80.2822H660.154V53.8643L646.862 80.2822Z" fill="white"/>
<path d="M255.466 35.0449C259.712 35.0449 263.628 35.7616 267.212 37.1953C270.796 38.629 273.746 40.6149 276.062 43.1514L266.633 52.498C264.868 50.7335 263.076 49.4096 261.256 48.5273C259.436 47.6452 257.451 47.2042 255.301 47.2041C253.261 47.2041 251.661 47.5625 250.503 48.2793C249.345 48.9961 248.767 50.0165 248.767 51.3398C248.767 52.6631 249.263 53.7383 250.255 54.5654C251.247 55.3925 252.544 56.1371 254.143 56.7988C255.797 57.4054 257.59 58.0395 259.52 58.7012C261.504 59.3628 263.462 60.1354 265.392 61.0176C267.321 61.8998 269.087 63.0298 270.686 64.4082C272.34 65.7868 273.664 67.5247 274.656 69.6201C275.649 71.7155 276.145 74.2528 276.145 77.2305C276.144 83.0753 274.077 87.5967 269.941 90.7949C265.861 93.9933 260.126 95.5928 252.736 95.5928C247.829 95.5928 243.555 94.8481 239.916 93.3594C236.332 91.8705 233.05 89.5273 230.072 86.3291L239.419 76.8984C241.459 79.049 243.638 80.7043 245.954 81.8623C248.27 82.965 250.889 83.5166 253.812 83.5166C256.293 83.5166 258.196 83.1025 259.52 82.2754C260.898 81.3931 261.587 80.2074 261.587 78.7188C261.587 77.3402 261.09 76.2094 260.098 75.3271C259.105 74.3899 257.782 73.5903 256.128 72.9287C254.529 72.2118 252.736 71.5499 250.751 70.9434C248.821 70.2817 246.863 69.5092 244.878 68.627C242.948 67.6896 241.156 66.5595 239.502 65.2363C237.903 63.913 236.607 62.2584 235.614 60.2734C234.622 58.2883 234.126 55.8337 234.126 52.9111C234.126 49.1615 235.008 45.9632 236.772 43.3164C238.592 40.6696 241.102 38.629 244.3 37.1953C247.498 35.7617 251.22 35.0449 255.466 35.0449Z" fill="white"/>
<path d="M513.798 35.0449C518.43 35.0449 522.594 35.7895 526.288 37.2783C529.982 38.712 533.236 40.7248 536.048 43.3164L526.122 53.2422C524.744 51.6984 523.034 50.4858 520.994 49.6035C518.954 48.7213 516.555 48.2793 513.798 48.2793C511.427 48.2793 509.249 48.6656 507.264 49.4375C505.334 50.2095 503.651 51.3673 502.218 52.9111C500.784 54.4 499.653 56.1927 498.826 58.2881C498.054 60.3833 497.668 62.7269 497.668 65.3184C497.668 67.91 498.054 70.2542 498.826 72.3496C499.653 74.4449 500.784 76.2646 502.218 77.8086C503.651 79.2974 505.334 80.4561 507.264 81.2832C509.249 82.0551 511.427 82.4404 513.798 82.4404C516.555 82.4404 518.982 82.0273 521.077 81.2002C523.172 80.318 524.964 79.0774 526.453 77.4785L536.379 87.4033C533.512 89.995 530.258 92.0087 526.619 93.4424C523.035 94.8761 518.815 95.5928 513.963 95.5928C509.496 95.5927 505.36 94.8482 501.556 93.3594C497.751 91.8154 494.414 89.6922 491.547 86.9902C488.735 84.2332 486.53 81.0069 484.931 77.3125C483.387 73.6179 482.614 69.6195 482.614 65.3184C482.614 60.9622 483.387 56.9645 484.931 53.3252C486.53 49.6307 488.735 46.4315 491.547 43.7295C494.414 41.0276 497.723 38.9053 501.473 37.3613C505.278 35.8173 509.386 35.0449 513.798 35.0449Z" fill="white"/>
<path d="M226.98 48.5273H198.775V58.7012H224.499V70.8604H198.775V82.1924H227.478V94.6826H183.969V36.0371H226.98V48.5273Z" fill="white"/>
<path d="M298.453 94.6826H283.647V36.0371H298.453V94.6826Z" fill="white"/>
<path fill-rule="evenodd" clip-rule="evenodd" d="M331.477 36.0371C335.998 36.0371 340.162 36.7548 343.967 38.1885C347.771 39.5671 351.08 41.5519 353.893 44.1436C356.705 46.7353 358.883 49.8239 360.427 53.4082C362.026 56.9923 362.826 60.9623 362.826 65.3184C362.826 69.7298 362.026 73.7282 360.427 77.3125C358.883 80.8968 356.705 83.9854 353.893 86.5771C351.08 89.1688 347.772 91.1815 343.967 92.6152C340.217 93.9938 336.108 94.6826 331.642 94.6826H307.323V36.0371H331.477ZM322.13 81.9453H331.394C334.702 81.9453 337.57 81.3103 339.996 80.042C342.477 78.7737 344.381 76.8984 345.704 74.417C347.027 71.8806 347.688 68.8201 347.688 65.2363C347.688 61.7074 347 58.7289 345.621 56.3027C344.298 53.8215 342.422 51.947 339.996 50.6787C337.57 49.4104 334.702 48.7754 331.394 48.7754H322.13V81.9453Z" fill="white"/>
<path d="M414.787 48.5273H386.581V58.7012H412.306V70.8604H386.581V82.1924H415.283V94.6826H371.775V36.0371H414.787V48.5273Z" fill="white"/>
<path d="M460.277 69.376V36.0371H475.083V94.6826H464.082L438.44 62.1035V94.6826H423.634V36.0371H433.974L460.277 69.376Z" fill="white"/>
<path d="M564.094 55.9424L575.261 36.0371H591.887L571.456 70.0889V94.6826H556.649V70.7559L535.971 36.0371H552.928L564.094 55.9424Z" fill="white"/>
<path fill-rule="evenodd" clip-rule="evenodd" d="M154.8 35.2451C158.823 35.2452 162.344 36 165.361 37.5088C168.435 39.0176 170.838 41.0854 172.57 43.7119C174.303 46.3384 175.169 49.4121 175.169 52.9326C175.169 56.453 174.274 59.5541 172.486 62.2363C170.754 64.8627 168.324 66.9306 165.194 68.4395C163.841 69.068 162.387 69.5594 160.834 69.916L179.025 94.6768H161.673L145.371 70.6191H144.489V94.6768H129.484V35.2451H154.8ZM144.489 59.8896H152.704C155.163 59.8896 157.035 59.3024 158.32 58.1289C159.661 56.8995 160.332 55.2511 160.332 53.1836C160.332 51.172 159.661 49.5517 158.32 48.3223C157.035 47.037 155.163 46.3936 152.704 46.3936H144.489V59.8896Z" fill="white"/>
<path d="M144.553 141.785C142.449 141.785 140.484 141.392 138.66 140.606C136.836 139.82 135.237 138.74 133.862 137.365C132.487 135.962 131.407 134.348 130.621 132.524C129.863 130.672 129.484 128.694 129.484 126.589C129.484 124.485 129.863 122.521 130.621 120.697C131.407 118.873 132.473 117.273 133.82 115.898C135.195 114.495 136.78 113.415 138.576 112.657C140.4 111.871 142.364 111.479 144.469 111.479C146.574 111.479 148.524 111.871 150.32 112.657C152.144 113.415 153.743 114.495 155.118 115.898C156.493 117.273 157.56 118.887 158.317 120.739C159.103 122.563 159.496 124.527 159.496 126.632C159.496 128.736 159.103 130.714 158.317 132.566C157.56 134.39 156.493 135.99 155.118 137.365C153.771 138.74 152.186 139.82 150.362 140.606C148.566 141.392 146.63 141.785 144.553 141.785ZM144.469 137.154C146.461 137.154 148.201 136.705 149.688 135.808C151.204 134.91 152.382 133.675 153.224 132.103C154.094 130.504 154.529 128.666 154.529 126.589C154.529 125.046 154.276 123.643 153.771 122.38C153.294 121.089 152.607 119.981 151.709 119.055C150.811 118.101 149.745 117.371 148.51 116.866C147.303 116.361 145.956 116.109 144.469 116.109C142.505 116.109 140.765 116.558 139.25 117.456C137.762 118.325 136.584 119.546 135.714 121.118C134.872 122.689 134.451 124.513 134.451 126.589C134.451 128.133 134.69 129.564 135.167 130.883C135.672 132.174 136.359 133.282 137.229 134.208C138.127 135.134 139.194 135.864 140.428 136.397C141.663 136.902 143.01 137.154 144.469 137.154Z" fill="white"/>
<path d="M174.604 141.785C173.061 141.785 171.686 141.462 170.479 140.816C169.273 140.143 168.319 139.231 167.617 138.08C166.944 136.93 166.607 135.625 166.607 134.166V128.357C166.607 126.898 166.958 125.593 167.659 124.443C168.361 123.292 169.315 122.394 170.521 121.749C171.728 121.075 173.089 120.739 174.604 120.739C176.428 120.739 178.07 121.216 179.529 122.17C181.016 123.096 182.181 124.359 183.023 125.958C183.893 127.53 184.328 129.311 184.328 131.304C184.328 133.268 183.893 135.05 183.023 136.649C182.181 138.221 181.016 139.47 179.529 140.396C178.07 141.322 176.428 141.785 174.604 141.785ZM163.787 149.782V121.16H168.417V126.589L167.617 131.514L168.417 136.397V149.782H163.787ZM173.847 137.407C174.969 137.407 175.951 137.154 176.793 136.649C177.663 136.116 178.336 135.387 178.814 134.461C179.319 133.535 179.571 132.468 179.571 131.262C179.571 130.055 179.319 128.989 178.814 128.063C178.336 127.137 177.663 126.421 176.793 125.916C175.951 125.383 174.969 125.116 173.847 125.116C172.724 125.116 171.728 125.383 170.858 125.916C169.988 126.421 169.315 127.137 168.838 128.063C168.361 128.989 168.122 130.055 168.122 131.262C168.122 132.468 168.361 133.535 168.838 134.461C169.315 135.387 169.988 136.116 170.858 136.649C171.728 137.154 172.724 137.407 173.847 137.407Z" fill="white"/>
<path d="M197.59 141.785C195.569 141.785 193.745 141.336 192.118 140.438C190.518 139.512 189.242 138.249 188.287 136.649C187.361 135.05 186.898 133.254 186.898 131.262C186.898 129.269 187.361 127.487 188.287 125.916C189.213 124.317 190.462 123.054 192.034 122.128C193.633 121.202 195.401 120.739 197.337 120.739C199.217 120.739 200.873 121.174 202.304 122.044C203.763 122.913 204.9 124.106 205.713 125.621C206.555 127.137 206.976 128.862 206.976 130.799C206.976 131.135 206.948 131.486 206.892 131.851C206.864 132.188 206.808 132.566 206.724 132.987H190.139V129.199H204.324L202.599 130.714C202.542 129.48 202.304 128.441 201.883 127.6C201.462 126.758 200.859 126.112 200.073 125.663C199.315 125.214 198.375 124.99 197.253 124.99C196.074 124.99 195.05 125.243 194.18 125.748C193.31 126.253 192.637 126.968 192.16 127.894C191.683 128.792 191.444 129.873 191.444 131.135C191.444 132.398 191.697 133.507 192.202 134.461C192.707 135.415 193.423 136.158 194.349 136.691C195.275 137.197 196.341 137.449 197.548 137.449C198.586 137.449 199.54 137.267 200.41 136.902C201.308 136.537 202.065 136.004 202.683 135.302L205.629 138.291C204.647 139.441 203.454 140.311 202.051 140.901C200.648 141.49 199.161 141.785 197.59 141.785Z" fill="white"/>
<path d="M224.536 141.364V129.704C224.536 128.357 224.101 127.249 223.231 126.379C222.389 125.509 221.295 125.074 219.948 125.074C219.05 125.074 218.25 125.271 217.549 125.663C216.847 126.056 216.3 126.603 215.907 127.305C215.514 128.007 215.318 128.806 215.318 129.704L213.508 128.694C213.508 127.151 213.845 125.79 214.518 124.611C215.192 123.405 216.118 122.464 217.296 121.791C218.503 121.089 219.85 120.739 221.337 120.739C222.852 120.739 224.199 121.132 225.378 121.917C226.556 122.675 227.482 123.671 228.156 124.906C228.829 126.112 229.166 127.375 229.166 128.694V141.364H224.536ZM210.688 141.364V121.16H215.318V141.364H210.688Z" fill="white"/>
<path d="M248.822 141.574L240.193 121.16H245.286L251.179 136.144H249.706L255.935 121.16H261.071L251.684 141.574H248.822ZM242.803 149.782L249.074 136.86L251.684 141.574L247.938 149.782H242.803Z" fill="white"/>
<path d="M272.316 141.785C270.352 141.785 268.57 141.322 266.97 140.396C265.371 139.441 264.094 138.165 263.14 136.565C262.214 134.966 261.751 133.184 261.751 131.22C261.751 129.255 262.214 127.487 263.14 125.916C264.094 124.345 265.371 123.096 266.97 122.17C268.57 121.216 270.352 120.739 272.316 120.739C274.308 120.739 276.104 121.202 277.704 122.128C279.303 123.054 280.566 124.317 281.492 125.916C282.446 127.487 282.923 129.255 282.923 131.22C282.923 133.184 282.446 134.966 281.492 136.565C280.566 138.165 279.303 139.441 277.704 140.396C276.104 141.322 274.308 141.785 272.316 141.785ZM272.316 137.323C273.466 137.323 274.477 137.07 275.346 136.565C276.244 136.032 276.932 135.302 277.409 134.376C277.914 133.45 278.167 132.398 278.167 131.22C278.167 130.041 277.914 129.003 277.409 128.105C276.904 127.207 276.216 126.505 275.346 126C274.477 125.467 273.466 125.2 272.316 125.2C271.193 125.2 270.183 125.467 269.285 126C268.415 126.505 267.728 127.207 267.223 128.105C266.746 129.003 266.507 130.041 266.507 131.22C266.507 132.398 266.746 133.45 267.223 134.376C267.728 135.302 268.415 136.032 269.285 136.565C270.183 137.07 271.193 137.323 272.316 137.323Z" fill="white"/>
<path d="M295.065 141.785C293.354 141.785 291.824 141.406 290.477 140.648C289.159 139.89 288.12 138.852 287.363 137.533C286.633 136.186 286.268 134.643 286.268 132.903V121.16H290.898V132.693C290.898 133.675 291.053 134.517 291.361 135.218C291.698 135.892 292.175 136.411 292.793 136.776C293.438 137.14 294.196 137.323 295.065 137.323C296.412 137.323 297.437 136.93 298.138 136.144C298.868 135.33 299.233 134.18 299.233 132.693V121.16H303.863V132.903C303.863 134.671 303.484 136.228 302.726 137.575C301.997 138.894 300.972 139.933 299.653 140.69C298.335 141.42 296.805 141.785 295.065 141.785Z" fill="white"/>
<path d="M308.518 141.364V121.16H313.148V141.364H308.518ZM313.148 130.125L311.549 129.325C311.549 126.772 312.11 124.709 313.232 123.138C314.383 121.538 316.109 120.739 318.41 120.739C319.42 120.739 320.332 120.921 321.146 121.286C321.959 121.651 322.717 122.24 323.419 123.054L320.388 126.169C320.023 125.776 319.616 125.495 319.167 125.327C318.718 125.158 318.199 125.074 317.61 125.074C316.319 125.074 315.253 125.481 314.411 126.295C313.569 127.109 313.148 128.385 313.148 130.125Z" fill="white"/>
<path d="M343.244 150.203C341.111 150.203 339.245 149.81 337.645 149.024C336.046 148.267 334.755 147.186 333.773 145.783L336.804 142.753C337.617 143.763 338.543 144.521 339.582 145.026C340.62 145.531 341.869 145.783 343.328 145.783C345.152 145.783 346.597 145.306 347.663 144.352C348.73 143.426 349.263 142.149 349.263 140.522V135.555L350.062 131.093L349.263 126.589V121.16H353.893V140.522C353.893 142.458 353.444 144.142 352.546 145.573C351.648 147.032 350.399 148.168 348.8 148.982C347.2 149.796 345.348 150.203 343.244 150.203ZM343.033 140.943C341.237 140.943 339.61 140.508 338.151 139.638C336.719 138.74 335.583 137.519 334.741 135.976C333.927 134.433 333.52 132.707 333.52 130.799C333.52 128.89 333.927 127.179 334.741 125.663C335.583 124.148 336.719 122.956 338.151 122.086C339.61 121.188 341.237 120.739 343.033 120.739C344.633 120.739 346.036 121.061 347.242 121.707C348.449 122.352 349.389 123.25 350.062 124.401C350.736 125.523 351.073 126.842 351.073 128.357V133.324C351.073 134.811 350.722 136.13 350.02 137.281C349.347 138.431 348.407 139.329 347.2 139.975C345.994 140.62 344.605 140.943 343.033 140.943ZM343.959 136.565C345.082 136.565 346.064 136.327 346.906 135.85C347.747 135.373 348.393 134.713 348.842 133.871C349.319 133.001 349.557 131.991 349.557 130.841C349.557 129.69 349.319 128.694 348.842 127.852C348.393 126.982 347.747 126.309 346.906 125.832C346.064 125.355 345.082 125.116 343.959 125.116C342.837 125.116 341.841 125.355 340.971 125.832C340.129 126.309 339.469 126.982 338.992 127.852C338.515 128.694 338.277 129.69 338.277 130.841C338.277 131.963 338.515 132.959 338.992 133.829C339.469 134.699 340.129 135.373 340.971 135.85C341.841 136.327 342.837 136.565 343.959 136.565Z" fill="white"/>
<path d="M359.036 141.364V111.058H363.666V141.364H359.036Z" fill="white"/>
<path d="M378.079 141.785C376.115 141.785 374.333 141.322 372.734 140.396C371.134 139.441 369.858 138.165 368.903 136.565C367.977 134.966 367.514 133.184 367.514 131.22C367.514 129.255 367.977 127.487 368.903 125.916C369.858 124.345 371.134 123.096 372.734 122.17C374.333 121.216 376.115 120.739 378.079 120.739C380.072 120.739 381.868 121.202 383.467 122.128C385.067 123.054 386.329 124.317 387.255 125.916C388.21 127.487 388.687 129.255 388.687 131.22C388.687 133.184 388.21 134.966 387.255 136.565C386.329 138.165 385.067 139.441 383.467 140.396C381.868 141.322 380.072 141.785 378.079 141.785ZM378.079 137.323C379.23 137.323 380.24 137.07 381.11 136.565C382.008 136.032 382.696 135.302 383.173 134.376C383.678 133.45 383.93 132.398 383.93 131.22C383.93 130.041 383.678 129.003 383.173 128.105C382.667 127.207 381.98 126.505 381.11 126C380.24 125.467 379.23 125.2 378.079 125.2C376.957 125.2 375.947 125.467 375.049 126C374.179 126.505 373.491 127.207 372.986 128.105C372.509 129.003 372.271 130.041 372.271 131.22C372.271 132.398 372.509 133.45 372.986 134.376C373.491 135.302 374.179 136.032 375.049 136.565C375.947 137.07 376.957 137.323 378.079 137.323Z" fill="white"/>
<path d="M403.355 141.785C401.811 141.785 400.436 141.462 399.23 140.816C398.023 140.143 397.069 139.231 396.367 138.08C395.694 136.93 395.357 135.625 395.357 134.166V128.357C395.357 126.898 395.708 125.593 396.409 124.443C397.111 123.292 398.065 122.394 399.272 121.749C400.478 121.075 401.839 120.739 403.355 120.739C405.178 120.739 406.82 121.216 408.279 122.17C409.767 123.096 410.931 124.359 411.773 125.958C412.643 127.53 413.078 129.311 413.078 131.304C413.078 133.268 412.643 135.05 411.773 136.649C410.931 138.221 409.767 139.47 408.279 140.396C406.82 141.322 405.178 141.785 403.355 141.785ZM392.537 141.364V111.058H397.167V126.126L396.367 131.009L397.167 135.934V141.364H392.537ZM402.597 137.407C403.719 137.407 404.701 137.154 405.543 136.649C406.413 136.116 407.087 135.387 407.564 134.461C408.069 133.535 408.321 132.468 408.321 131.262C408.321 130.055 408.069 128.989 407.564 128.063C407.087 127.137 406.413 126.421 405.543 125.916C404.701 125.383 403.719 125.116 402.597 125.116C401.474 125.116 400.478 125.383 399.608 125.916C398.738 126.421 398.065 127.137 397.588 128.063C397.111 128.989 396.872 130.055 396.872 131.262C396.872 132.468 397.111 133.535 397.588 134.461C398.065 135.387 398.738 136.116 399.608 136.649C400.478 137.154 401.474 137.407 402.597 137.407Z" fill="white"/>
<path d="M425.414 141.785C423.59 141.785 421.934 141.322 420.447 140.396C418.988 139.47 417.823 138.221 416.953 136.649C416.112 135.05 415.691 133.268 415.691 131.304C415.691 129.311 416.112 127.53 416.953 125.958C417.823 124.359 418.988 123.096 420.447 122.17C421.934 121.216 423.59 120.739 425.414 120.739C426.957 120.739 428.318 121.075 429.497 121.749C430.703 122.394 431.657 123.292 432.359 124.443C433.06 125.593 433.411 126.898 433.411 128.357V134.166C433.411 135.625 433.06 136.93 432.359 138.08C431.685 139.231 430.745 140.143 429.539 140.816C428.332 141.462 426.957 141.785 425.414 141.785ZM426.171 137.407C427.883 137.407 429.258 136.832 430.296 135.681C431.363 134.531 431.896 133.058 431.896 131.262C431.896 130.055 431.657 128.989 431.18 128.063C430.703 127.137 430.03 126.421 429.16 125.916C428.318 125.383 427.322 125.116 426.171 125.116C425.049 125.116 424.053 125.383 423.183 125.916C422.341 126.421 421.668 127.137 421.163 128.063C420.686 128.989 420.447 130.055 420.447 131.262C420.447 132.468 420.686 133.535 421.163 134.461C421.668 135.387 422.341 136.116 423.183 136.649C424.053 137.154 425.049 137.407 426.171 137.407ZM431.601 141.364V135.934L432.401 131.009L431.601 126.126V121.16H436.231V141.364H431.601Z" fill="white"/>
<path d="M441.37 141.364V111.058H446V141.364H441.37Z" fill="white"/>
<path d="M462.358 141.364V118.508C462.358 116.964 462.694 115.604 463.368 114.425C464.069 113.246 465.023 112.32 466.23 111.647C467.465 110.973 468.882 110.637 470.481 110.637C471.716 110.637 472.768 110.847 473.638 111.268C474.508 111.689 475.322 112.292 476.079 113.078L473.091 116.067C472.754 115.73 472.389 115.463 471.997 115.267C471.604 115.07 471.099 114.972 470.481 114.972C469.359 114.972 468.489 115.281 467.872 115.898C467.282 116.487 466.988 117.343 466.988 118.466V141.364H462.358ZM457.517 125.369V121.16H473.091V125.369H457.517Z" fill="white"/>
<path d="M484.848 141.785C483.136 141.785 481.607 141.406 480.26 140.648C478.941 139.89 477.903 138.852 477.145 137.533C476.416 136.186 476.051 134.643 476.051 132.903V121.16H480.681V132.693C480.681 133.675 480.835 134.517 481.144 135.218C481.481 135.892 481.958 136.411 482.575 136.776C483.22 137.14 483.978 137.323 484.848 137.323C486.195 137.323 487.219 136.93 487.921 136.144C488.65 135.33 489.015 134.18 489.015 132.693V121.16H493.645V132.903C493.645 134.671 493.266 136.228 492.509 137.575C491.779 138.894 490.755 139.933 489.436 140.69C488.117 141.42 486.588 141.785 484.848 141.785Z" fill="white"/>
<path d="M501.373 141.364V112.741H506.003V141.364H501.373ZM496.533 125.369V121.16H510.844V125.369H496.533Z" fill="white"/>
<path d="M522.5 141.785C520.789 141.785 519.259 141.406 517.912 140.648C516.593 139.89 515.555 138.852 514.797 137.533C514.068 136.186 513.703 134.643 513.703 132.903V121.16H518.333V132.693C518.333 133.675 518.488 134.517 518.796 135.218C519.133 135.892 519.61 136.411 520.227 136.776C520.873 137.14 521.63 137.323 522.5 137.323C523.847 137.323 524.871 136.93 525.573 136.144C526.303 135.33 526.667 134.18 526.667 132.693V121.16H531.297V132.903C531.297 134.671 530.919 136.228 530.161 137.575C529.431 138.894 528.407 139.933 527.088 140.69C525.769 141.42 524.24 141.785 522.5 141.785Z" fill="white"/>
<path d="M535.953 141.364V121.16H540.583V141.364H535.953ZM540.583 130.125L538.983 129.325C538.983 126.772 539.545 124.709 540.667 123.138C541.818 121.538 543.543 120.739 545.844 120.739C546.855 120.739 547.767 120.921 548.58 121.286C549.394 121.651 550.152 122.24 550.853 123.054L547.823 126.169C547.458 125.776 547.051 125.495 546.602 125.327C546.153 125.158 545.634 125.074 545.045 125.074C543.754 125.074 542.688 125.481 541.846 126.295C541.004 127.109 540.583 128.385 540.583 130.125Z" fill="white"/>
<path d="M561.864 141.785C559.843 141.785 558.019 141.336 556.392 140.438C554.792 139.512 553.515 138.249 552.561 136.649C551.635 135.05 551.172 133.254 551.172 131.262C551.172 129.269 551.635 127.487 552.561 125.916C553.487 124.317 554.736 123.054 556.307 122.128C557.907 121.202 559.675 120.739 561.611 120.739C563.491 120.739 565.147 121.174 566.578 122.044C568.037 122.913 569.173 124.106 569.987 125.621C570.829 127.137 571.25 128.862 571.25 130.799C571.25 131.135 571.222 131.486 571.166 131.851C571.138 132.188 571.082 132.566 570.997 132.987H554.413V129.199H568.598L566.872 130.714C566.816 129.48 566.578 128.441 566.157 127.6C565.736 126.758 565.133 126.112 564.347 125.663C563.589 125.214 562.649 124.99 561.527 124.99C560.348 124.99 559.324 125.243 558.454 125.748C557.584 126.253 556.911 126.968 556.434 127.894C555.957 128.792 555.718 129.873 555.718 131.135C555.718 132.398 555.971 133.507 556.476 134.461C556.981 135.415 557.696 136.158 558.622 136.691C559.549 137.197 560.615 137.449 561.821 137.449C562.86 137.449 563.814 137.267 564.684 136.902C565.582 136.537 566.339 136.004 566.957 135.302L569.903 138.291C568.921 139.441 567.728 140.311 566.325 140.901C564.922 141.49 563.435 141.785 561.864 141.785Z" fill="white"/>
</svg>
